<?xml version="1.0" encoding="utf-8"?>
<!-- Generator: Adobe Illustrator 22.0.1, SVG Export Plug-In . SVG Version: 6.00 Build 0)  -->
<svg version="1.1" id="Ebene_1" xmlns="http://www.w3.org/2000/svg" xmlns:xlink="http://www.w3.org/1999/xlink" x="0px" y="0px"
	 viewBox="0 0 200 200" style="enable-background:new 0 0 200 200;" xml:space="preserve">
<style type="text/css">
	.st0{fill:white;}
</style>
<path class="st0" d="M160.6,69.6c-15,6-17.6,24.7-25.9,37.9C124.3,91.3,93.2,84.7,93.2,68c0-7.9,6.1-13.7,13.5-13.7
	S119,60.7,119,66.3c0,8.7-6.4,12.1-6.4,12.1c9.4,2,14.4-5.8,14.4-14.1c0-5.2-2.5-20.6-27-20.6c-13.9,0-29,7.4-29,24.7
	c0,8.8,7.6,17.3,19.1,24.3c0,0-15.2,4.2-23.8,16.2c-9-13.2-11.3-32.9-26.7-39.2c-15.4-6.2-27.4,1.4-27.4,6c29.7,0,18.1,80,87.9,80
	s58.1-80,87.9-80C188,71.1,176.1,63.4,160.6,69.6z M100.2,148.6c-11.1,0-20.1-9-20.1-20.1c0-16.4,20.1-29.2,20.1-29.2
	s20.1,12.7,20.1,29.2C120.2,139.6,111.3,148.6,100.2,148.6z"/>
</svg>
